<svg xmlns="http://www.w3.org/2000/svg" width="160" height="36.322" viewBox="0 0 209.786 36.322"><defs><linearGradient id="linear-gradient" x1="0.5" x2="0.5" y2="1" gradientUnits="objectBoundingBox"><stop offset="0" stop-color="#3ef6b5"></stop><stop offset="1" stop-color="blue"></stop></linearGradient></defs><g id="Group_28" data-name="Group 28" transform="translate(-521 -31.672)"><path id="Path_230" data-name="Path 230" d="M13.082-16.585a3.444,3.444,0,0,0-1.6-1.1,5.722,5.722,0,0,0-1.907-.356,5,5,0,0,0-1.085.124,4.158,4.158,0,0,0-1.054.388,2.3,2.3,0,0,0-.806.7,1.766,1.766,0,0,0-.31,1.054,1.747,1.747,0,0,0,.744,1.519,7.045,7.045,0,0,0,1.876.9q1.131.372,2.434.744a10.027,10.027,0,0,1,2.433,1.054,5.761,5.761,0,0,1,1.876,1.829,5.575,5.575,0,0,1,.744,3.069,7.056,7.056,0,0,1-.682,3.193A6.479,6.479,0,0,1,13.9-1.209a7.849,7.849,0,0,1-2.7,1.333,11.85,11.85,0,0,1-3.24.434A11.752,11.752,0,0,1,4-.093,9.943,9.943,0,0,1,.589-2.2L4.03-5.983A5.023,5.023,0,0,0,5.906-4.449a5.354,5.354,0,0,0,2.34.543,5.3,5.3,0,0,0,1.194-.14,3.888,3.888,0,0,0,1.085-.418,2.34,2.34,0,0,0,.775-.713A1.778,1.778,0,0,0,11.594-6.2a1.856,1.856,0,0,0-.76-1.565,7,7,0,0,0-1.907-.977q-1.147-.4-2.48-.806a11.137,11.137,0,0,1-2.48-1.085,5.977,5.977,0,0,1-1.907-1.8,5.144,5.144,0,0,1-.76-2.945,6.593,6.593,0,0,1,.7-3.1,6.725,6.725,0,0,1,1.86-2.232,8.086,8.086,0,0,1,2.681-1.348,10.976,10.976,0,0,1,3.131-.45,12.311,12.311,0,0,1,3.6.527A8.294,8.294,0,0,1,16.4-20.212Zm15.686,5.239H24.676v5.022a9.452,9.452,0,0,0,.062,1.131,2.28,2.28,0,0,0,.279.884,1.41,1.41,0,0,0,.667.574,2.955,2.955,0,0,0,1.194.2,8.038,8.038,0,0,0,.976-.078,1.655,1.655,0,0,0,.915-.357V-.093a7.036,7.036,0,0,1-1.612.372,14.873,14.873,0,0,1-1.643.093,8.938,8.938,0,0,1-2.17-.248,4.949,4.949,0,0,1-1.736-.791,3.7,3.7,0,0,1-1.163-1.411,4.822,4.822,0,0,1-.418-2.108v-7.161H17.05v-3.72h2.976V-19.53h4.65v4.464h4.092ZM39.649-1.891h-.062A4.373,4.373,0,0,1,37.526-.155a7.086,7.086,0,0,1-2.713.527,6.994,6.994,0,0,1-2.03-.295,5.124,5.124,0,0,1-1.721-.883,4.266,4.266,0,0,1-1.178-1.457,4.45,4.45,0,0,1-.434-2.015,4.62,4.62,0,0,1,.48-2.2,4.3,4.3,0,0,1,1.3-1.488,6.466,6.466,0,0,1,1.876-.915,13.691,13.691,0,0,1,2.185-.48,20.875,20.875,0,0,1,2.263-.186q1.132-.031,2.093-.031a2.418,2.418,0,0,0-.884-1.969,3.186,3.186,0,0,0-2.092-.729,4.551,4.551,0,0,0-2.092.481,5.716,5.716,0,0,0-1.69,1.318l-2.48-2.542a8.533,8.533,0,0,1,3.038-1.814,10.858,10.858,0,0,1,3.6-.6,9.4,9.4,0,0,1,3.364.511,4.891,4.891,0,0,1,2.108,1.5,5.794,5.794,0,0,1,1.1,2.434,15.97,15.97,0,0,1,.31,3.333V0H39.649ZM38.5-6.6q-.527,0-1.317.047a6.676,6.676,0,0,0-1.519.264,3.38,3.38,0,0,0-1.24.651,1.5,1.5,0,0,0-.511,1.209,1.33,1.33,0,0,0,.713,1.24,2.983,2.983,0,0,0,1.488.4,4.666,4.666,0,0,0,1.318-.186A3.929,3.929,0,0,0,38.564-3.5a2.547,2.547,0,0,0,.79-.868,2.5,2.5,0,0,0,.295-1.24V-6.6ZM56.11-10.2a2.606,2.606,0,0,0-.961-.822,2.825,2.825,0,0,0-1.333-.325,3.554,3.554,0,0,0-2.743,1.054A3.9,3.9,0,0,0,50.1-7.533a3.9,3.9,0,0,0,.977,2.759A3.554,3.554,0,0,0,53.816-3.72a2.507,2.507,0,0,0,1.333-.341,4.065,4.065,0,0,0,.961-.806l3.069,3.224A5.929,5.929,0,0,1,56.622-.078a9.61,9.61,0,0,1-2.806.45,9.5,9.5,0,0,1-3.271-.558,7.872,7.872,0,0,1-2.666-1.6,7.493,7.493,0,0,1-1.783-2.5,7.893,7.893,0,0,1-.651-3.255,7.893,7.893,0,0,1,.651-3.255,7.493,7.493,0,0,1,1.783-2.5,7.872,7.872,0,0,1,2.666-1.6,9.5,9.5,0,0,1,3.271-.558,9.61,9.61,0,0,1,2.806.449,5.929,5.929,0,0,1,2.557,1.566Zm3.813-13.237h4.65V-9.114l5.146-5.952h5.7L69.44-8.277,75.578,0H69.719L64.635-7.626h-.062V0h-4.65ZM85.994-2.046H85.9A4.79,4.79,0,0,1,83.855-.2a6.42,6.42,0,0,1-2.728.574,7.243,7.243,0,0,1-2-.279,5.416,5.416,0,0,1-1.736-.837,4.3,4.3,0,0,1-1.224-1.395A3.956,3.956,0,0,1,75.7-4.092a4.5,4.5,0,0,1,.434-2.062A4.234,4.234,0,0,1,77.3-7.579a5.892,5.892,0,0,1,1.689-.914,11.573,11.573,0,0,1,2-.512,17.727,17.727,0,0,1,2.093-.217q1.054-.046,1.984-.046h.93v-.4a2.417,2.417,0,0,0-.961-2.092,4.064,4.064,0,0,0-2.449-.7,5.756,5.756,0,0,0-2.2.418,5.572,5.572,0,0,0-1.767,1.132l-1.953-1.953a7.211,7.211,0,0,1,2.9-1.829,10.671,10.671,0,0,1,3.425-.558,8.625,8.625,0,0,1,2.666.357,5.865,5.865,0,0,1,1.8.915,4.043,4.043,0,0,1,1.1,1.286,5.973,5.973,0,0,1,.558,1.472,8.054,8.054,0,0,1,.2,1.442q.031.7.031,1.224V0H85.994Zm-.217-4.619H85q-.775,0-1.736.062a9.108,9.108,0,0,0-1.813.294,4.147,4.147,0,0,0-1.441.682,1.489,1.489,0,0,0-.589,1.255,1.584,1.584,0,0,0,.232.884,2.106,2.106,0,0,0,.6.6,2.531,2.531,0,0,0,.837.357,4.081,4.081,0,0,0,.93.109,3.867,3.867,0,0,0,2.836-.914,3.372,3.372,0,0,0,.915-2.5Zm18.414,4.433h-.062a4.785,4.785,0,0,1-2.17,1.984,7.032,7.032,0,0,1-2.945.62,7.468,7.468,0,0,1-3.084-.6,6.911,6.911,0,0,1-2.31-1.659,7.091,7.091,0,0,1-1.457-2.48,9.279,9.279,0,0,1-.5-3.069,8.784,8.784,0,0,1,.527-3.069,7.632,7.632,0,0,1,1.473-2.48,6.787,6.787,0,0,1,2.278-1.658,6.972,6.972,0,0,1,2.914-.6,7.183,7.183,0,0,1,1.86.217,6.41,6.41,0,0,1,1.426.558,5.7,5.7,0,0,1,1.054.728,5.3,5.3,0,0,1,.713.76h.093V-23.436h3.72V0h-3.534Zm-8.8-5.208a4.84,4.84,0,0,0,.295,1.674,4.2,4.2,0,0,0,.868,1.426,4.324,4.324,0,0,0,1.38.992,4.317,4.317,0,0,0,1.829.372,4.317,4.317,0,0,0,1.829-.372,4.324,4.324,0,0,0,1.38-.992,4.2,4.2,0,0,0,.868-1.426,4.84,4.84,0,0,0,.294-1.674,4.84,4.84,0,0,0-.294-1.674,4.2,4.2,0,0,0-.868-1.426,4.324,4.324,0,0,0-1.38-.992,4.317,4.317,0,0,0-1.829-.372,4.317,4.317,0,0,0-1.829.372,4.324,4.324,0,0,0-1.38.992,4.2,4.2,0,0,0-.868,1.426A4.84,4.84,0,0,0,95.387-7.44Zm18.6,1.3a3.779,3.779,0,0,0,1.3,2.6,4.075,4.075,0,0,0,2.7.93,4.439,4.439,0,0,0,2.34-.574,6.488,6.488,0,0,0,1.659-1.441L124.651-2.6A7.556,7.556,0,0,1,121.737-.31a8.585,8.585,0,0,1-3.379.682A8.931,8.931,0,0,1,115.2-.186a7.584,7.584,0,0,1-2.573-1.581A7.5,7.5,0,0,1,110.9-4.232a7.869,7.869,0,0,1-.635-3.208,7.869,7.869,0,0,1,.635-3.208,7.5,7.5,0,0,1,1.721-2.465,7.584,7.584,0,0,1,2.573-1.581,8.931,8.931,0,0,1,3.162-.558,7.228,7.228,0,0,1,2.837.543,6.083,6.083,0,0,1,2.2,1.566,7.231,7.231,0,0,1,1.426,2.526,10.718,10.718,0,0,1,.511,3.457v1.023Zm7.626-2.79a3.5,3.5,0,0,0-1.023-2.589,3.837,3.837,0,0,0-2.759-.946,3.614,3.614,0,0,0-2.651.961,4.289,4.289,0,0,0-1.193,2.573Zm6.107-5.952h3.534v2.325h.062a5.031,5.031,0,0,1,1.6-1.875,4.838,4.838,0,0,1,2.961-.822q3.5,0,4.65,2.759a5.255,5.255,0,0,1,2.015-2.092,5.885,5.885,0,0,1,2.883-.667,5.724,5.724,0,0,1,2.511.5,4.388,4.388,0,0,1,1.659,1.364,5.612,5.612,0,0,1,.915,2.031,10.673,10.673,0,0,1,.279,2.5V0h-3.72V-8.432a6.866,6.866,0,0,0-.124-1.318,3.149,3.149,0,0,0-.434-1.116,2.2,2.2,0,0,0-.837-.76A2.909,2.909,0,0,0,144.3-11.9a3.07,3.07,0,0,0-1.473.326,2.875,2.875,0,0,0-.992.868,3.567,3.567,0,0,0-.558,1.24,5.919,5.919,0,0,0-.171,1.411V0h-3.72V-8.866a3.733,3.733,0,0,0-.589-2.216,2.238,2.238,0,0,0-1.953-.822,3.552,3.552,0,0,0-1.566.31,3.009,3.009,0,0,0-1.054.837,3.329,3.329,0,0,0-.6,1.209,5.4,5.4,0,0,0-.186,1.426V0h-3.72Zm26.257,0h3.72V0h-3.72Zm-.527-5.053a2.143,2.143,0,0,1,.666-1.565,2.289,2.289,0,0,1,1.689-.667,2.46,2.46,0,0,1,1.721.635,2.068,2.068,0,0,1,.7,1.6,2.068,2.068,0,0,1-.7,1.6,2.46,2.46,0,0,1-1.721.635,2.289,2.289,0,0,1-1.689-.666A2.143,2.143,0,0,1,153.45-19.933Zm17.763,9.517a5.936,5.936,0,0,0-1.364-1.085,2.928,2.928,0,0,0-1.457-.4,4.317,4.317,0,0,0-1.829.372,4.324,4.324,0,0,0-1.38.992,4.2,4.2,0,0,0-.868,1.426,4.84,4.84,0,0,0-.294,1.674,4.84,4.84,0,0,0,.294,1.674,4.2,4.2,0,0,0,.868,1.426,4.324,4.324,0,0,0,1.38.992,4.317,4.317,0,0,0,1.829.372A3.682,3.682,0,0,0,170-3.332a3.508,3.508,0,0,0,1.271-1.039l2.48,2.666a5.726,5.726,0,0,1-1.286.961A8.772,8.772,0,0,1,171-.093a8.986,8.986,0,0,1-1.426.357,7.65,7.65,0,0,1-1.178.109,8.931,8.931,0,0,1-3.162-.558,7.584,7.584,0,0,1-2.573-1.581,7.5,7.5,0,0,1-1.721-2.465A7.87,7.87,0,0,1,160.3-7.44a7.87,7.87,0,0,1,.635-3.208,7.5,7.5,0,0,1,1.721-2.465,7.584,7.584,0,0,1,2.573-1.581,8.931,8.931,0,0,1,3.162-.558,8.1,8.1,0,0,1,2.867.543,6.526,6.526,0,0,1,2.527,1.72Z" transform="translate(557 60)" fill="blue"></path><path id="Path_231" data-name="Path 231" d="M13.975,37.909a1.071,1.071,0,0,1-.4-.075,1.049,1.049,0,0,1-.349-.226L3.545,28.146a1.021,1.021,0,0,1-.231-.34,1.011,1.011,0,0,1,0-.775,1.021,1.021,0,0,1,.231-.34l.89-.869,8.906,8.7a1.049,1.049,0,0,0,.349.226,1.081,1.081,0,0,0,.793,0,1.05,1.05,0,0,0,.349-.226l8.8-8.592.779.761a1.022,1.022,0,0,1,.231.34,1.011,1.011,0,0,1,0,.775,1.022,1.022,0,0,1-.231.34L14.72,37.607a1.049,1.049,0,0,1-.349.226,1.072,1.072,0,0,1-.4.075Zm.213-5.966a1.071,1.071,0,0,1-.4-.075,1.049,1.049,0,0,1-.349-.226L5.96,24.331l1.4-1.364L3.811,19.5a1.021,1.021,0,0,1-.231-.34,1.011,1.011,0,0,1,0-.775,1.021,1.021,0,0,1,.231-.34L13.5,8.586a1.049,1.049,0,0,1,.349-.226,1.081,1.081,0,0,1,.793,0,1.049,1.049,0,0,1,.349.226l9.685,9.461a1.022,1.022,0,0,1,.231.34,1.011,1.011,0,0,1,0,.775,1.022,1.022,0,0,1-.231.34L20.86,23.227,22.2,24.539l-7.27,7.1a1.049,1.049,0,0,1-.349.226A1.071,1.071,0,0,1,14.189,31.942ZM7.356,22.967l6.14,6a1.049,1.049,0,0,0,.349.226,1.08,1.08,0,0,0,.793,0,1.049,1.049,0,0,0,.349-.226l5.874-5.738h0l-6.14-6A1.049,1.049,0,0,0,14.372,17a1.081,1.081,0,0,0-.793,0,1.049,1.049,0,0,0-.349.226Z" transform="translate(545.517 23.525) rotate(45)" fill="url(#linear-gradient)"></path></g></svg>